<?xml version="1.0" encoding="UTF-8" standalone="no"?>
<!-- Created with Inkscape (http://www.inkscape.org/) -->

<svg
   xmlns:dc="http://purl.org/dc/elements/1.1/"
   xmlns:cc="http://creativecommons.org/ns#"
   xmlns:rdf="http://www.w3.org/1999/02/22-rdf-syntax-ns#"
   xmlns:svg="http://www.w3.org/2000/svg"
   xmlns="http://www.w3.org/2000/svg"
   xmlns:sodipodi="http://sodipodi.sourceforge.net/DTD/sodipodi-0.dtd"
   xmlns:inkscape="http://www.inkscape.org/namespaces/inkscape"
   width="744.09448819"
   height="1052.3622047"
   id="svg2"
   version="1.1"
   inkscape:version="0.48.3.1 r9886"
   sodipodi:docname="graph-icons.svg">
  <defs
     id="defs4" />
  <sodipodi:namedview
     id="base"
     pagecolor="#ffffff"
     bordercolor="#666666"
     borderopacity="1.0"
     inkscape:pageopacity="0.0"
     inkscape:pageshadow="2"
     inkscape:zoom="0.7"
     inkscape:cx="115.68715"
     inkscape:cy="640.75289"
     inkscape:document-units="px"
     inkscape:current-layer="layer3"
     showgrid="false"
     inkscape:snap-to-guides="false"
     inkscape:snap-midpoints="true"
     inkscape:snap-page="true"
     inkscape:snap-grids="true"
     inkscape:window-width="1920"
     inkscape:window-height="1004"
     inkscape:window-x="0"
     inkscape:window-y="24"
     inkscape:window-maximized="1" />
  <metadata
     id="metadata7">
    <rdf:RDF>
      <cc:Work
         rdf:about="">
        <dc:format>image/svg+xml</dc:format>
        <dc:type
           rdf:resource="http://purl.org/dc/dcmitype/StillImage" />
        <dc:title />
      </cc:Work>
    </rdf:RDF>
  </metadata>
  <g
     inkscape:groupmode="layer"
     id="layer2"
     inkscape:label="background"
     style="display:none">
    <rect
       style="fill:#b3b3b3;fill-opacity:1"
       id="rect3909"
       width="561.42859"
       height="451.42856"
       x="60"
       y="79.647903" />
  </g>
  <g
     inkscape:label="bars sorted"
     inkscape:groupmode="layer"
     id="layer1"
     style="display:none">
    <rect
       style="fill:#000000;fill-opacity:1"
       id="rect3755"
       width="81.428574"
       height="154.37746"
       x="-483.18417"
       y="-500.34335"
       transform="scale(-1,-1)"
       inkscape:export-filename="/home/kjetil/prosjekter/beertistics/beertistics/static/img/bars-sorted.png"
       inkscape:export-xdpi="32.022545"
       inkscape:export-ydpi="32.022545" />
    <rect
       style="fill:#000000;fill-opacity:1"
       id="rect3755-6"
       width="81.428574"
       height="205.89523"
       x="-381.75562"
       y="-500.34335"
       transform="scale(-1,-1)"
       inkscape:export-filename="/home/kjetil/prosjekter/beertistics/beertistics/static/img/bars-sorted.png"
       inkscape:export-xdpi="32.022545"
       inkscape:export-ydpi="32.022545" />
    <rect
       style="fill:#000000;fill-opacity:1"
       id="rect3755-6-1"
       width="81.428574"
       height="244.28104"
       x="-280.32703"
       y="-500.34335"
       transform="scale(-1,-1)"
       inkscape:export-filename="/home/kjetil/prosjekter/beertistics/beertistics/static/img/bars-sorted.png"
       inkscape:export-xdpi="32.022545"
       inkscape:export-ydpi="32.022545" />
    <rect
       style="fill:#000000;fill-opacity:1"
       id="rect3755-6-1-2"
       width="81.428574"
       height="301.85971"
       x="-178.89848"
       y="-500.34335"
       transform="scale(-1,-1)"
       inkscape:export-filename="/home/kjetil/prosjekter/beertistics/beertistics/static/img/bars-sorted.png"
       inkscape:export-xdpi="32.022545"
       inkscape:export-ydpi="32.022545" />
    <rect
       style="fill:#000000;fill-opacity:1;fill-rule:evenodd;stroke:#000000;stroke-width:0.96821523px;stroke-linecap:butt;stroke-linejoin:miter;stroke-opacity:1"
       id="rect2985"
       width="559.78613"
       height="29.285713"
       x="60.593609"
       y="500.34335"
       inkscape:export-filename="/home/kjetil/prosjekter/beertistics/beertistics/static/img/bars-sorted.png"
       inkscape:export-xdpi="32.022545"
       inkscape:export-ydpi="32.022545" />
    <rect
       transform="scale(-1,-1)"
       y="-500.34335"
       x="-583.1842"
       height="90.091743"
       width="81.428574"
       id="rect3911"
       style="fill:#000000;fill-opacity:1"
       inkscape:export-filename="/home/kjetil/prosjekter/beertistics/beertistics/static/img/bars-sorted.png"
       inkscape:export-xdpi="32.022545"
       inkscape:export-ydpi="32.022545" />
  </g>
  <g
     style="display:none"
     id="g4056"
     inkscape:groupmode="layer"
     inkscape:label="bars uneven">
    <rect
       transform="scale(-1,-1)"
       y="-500.34335"
       x="-483.18417"
       height="257.23462"
       width="81.428574"
       id="rect4058"
       style="fill:#000000;fill-opacity:1"
       inkscape:export-filename="/home/kjetil/prosjekter/beertistics/beertistics/static/img/bars-uneven.png"
       inkscape:export-xdpi="32.062603"
       inkscape:export-ydpi="32.062603" />
    <rect
       transform="scale(-1,-1)"
       y="-500.34335"
       x="-381.75562"
       height="148.75237"
       width="81.428574"
       id="rect4060"
       style="fill:#000000;fill-opacity:1"
       inkscape:export-filename="/home/kjetil/prosjekter/beertistics/beertistics/static/img/bars-uneven.png"
       inkscape:export-xdpi="32.062603"
       inkscape:export-ydpi="32.062603" />
    <rect
       transform="scale(-1,-1)"
       y="-500.34335"
       x="-280.32703"
       height="301.42389"
       width="81.428574"
       id="rect4062"
       style="fill:#000000;fill-opacity:1"
       inkscape:export-filename="/home/kjetil/prosjekter/beertistics/beertistics/static/img/bars-uneven.png"
       inkscape:export-xdpi="32.062603"
       inkscape:export-ydpi="32.062603" />
    <rect
       transform="scale(-1,-1)"
       y="-500.34335"
       x="-178.89848"
       height="103.28829"
       width="81.428574"
       id="rect4064"
       style="fill:#000000;fill-opacity:1"
       inkscape:export-filename="/home/kjetil/prosjekter/beertistics/beertistics/static/img/bars-uneven.png"
       inkscape:export-xdpi="32.062603"
       inkscape:export-ydpi="32.062603" />
    <rect
       y="500.34335"
       x="60.593609"
       height="29.285713"
       width="559.78613"
       id="rect4066"
       style="fill:#000000;fill-opacity:1;fill-rule:evenodd;stroke:#000000;stroke-width:0.96821523px;stroke-linecap:butt;stroke-linejoin:miter;stroke-opacity:1"
       inkscape:export-filename="/home/kjetil/prosjekter/beertistics/beertistics/static/img/bars-uneven.png"
       inkscape:export-xdpi="32.062603"
       inkscape:export-ydpi="32.062603" />
    <rect
       style="fill:#000000;fill-opacity:1"
       id="rect4068"
       width="81.428574"
       height="377.23459"
       x="-583.1842"
       y="-500.34335"
       transform="scale(-1,-1)"
       inkscape:export-filename="/home/kjetil/prosjekter/beertistics/beertistics/static/img/bars-uneven.png"
       inkscape:export-xdpi="32.062603"
       inkscape:export-ydpi="32.062603" />
  </g>
  <g
     inkscape:groupmode="layer"
     id="layer3"
     inkscape:label="camera">
    <g
       id="g3098"
       transform="matrix(71.129937,0,0,-65.639783,390.22045,250.97595)">
      <path
         inkscape:connector-curvature="0"
         d="m 0,0 c 0.629,0 1.174,-0.342 1.475,-0.846 l 1.773,-0.002 0,0.952 c 0,0.353 -0.287,0.64 -0.641,0.64 l -6.611,0 c -0.353,0 -0.639,-0.287 -0.639,-0.64 l 0.002,-0.944 3.166,-0.002 C -1.172,-0.34 -0.629,0 0,0"
         style="fill:#231f20;fill-opacity:1;fill-rule:nonzero;stroke:none"
         id="path3100" />
    </g>
    <g
       id="g3102"
       transform="matrix(71.129937,0,0,-65.639783,177.94767,182.32303)">
      <path
         inkscape:connector-curvature="0"
         d="m 0,0 -0.588,0 -0.068,-0.212 0.705,0 L 0,0 z"
         style="fill:#231f20;fill-opacity:1;fill-rule:nonzero;stroke:none"
         id="path3104" />
    </g>
    <g
       id="g3106"
       transform="matrix(71.129937,0,0,-65.639783,555.12922,174.89211)">
      <path
         inkscape:connector-curvature="0"
         d="m 0,0 -0.783,0 -0.139,-0.327 1.049,0 L 0,0 z"
         style="fill:#231f20;fill-opacity:1;fill-rule:nonzero;stroke:none"
         id="path3108" />
    </g>
    <path
       inkscape:connector-curvature="0"
       d="m 363.93822,188.9259 -47.94156,0 0,-21.39861 47.94156,0 0,21.39861 z m 43.95831,-29.99737 -135.36027,0 -27.88292,37.67719 188.77882,0 -25.53563,-37.67719 z"
       style="fill:#231f20;fill-opacity:1;fill-rule:nonzero;stroke:none"
       id="path3110" />
    <g
       id="g3112"
       transform="matrix(71.129937,0,0,-65.639783,501.64578,317.64603)">
      <path
         inkscape:connector-curvature="0"
         d="m 0,0 c 0.098,-0.216 0.156,-0.454 0.156,-0.707 0,-0.951 -0.771,-1.723 -1.722,-1.723 -0.952,0 -1.723,0.772 -1.723,1.723 0,0.253 0.057,0.491 0.156,0.708 l -3.076,0 0,-2.596 c 0,-0.352 0.285,-0.639 0.639,-0.639 l 6.611,0 c 0.354,0 0.641,0.287 0.641,0.639 L 1.684,0 0,0 z"
         style="fill:#231f20;fill-opacity:1;fill-rule:nonzero;stroke:none"
         id="path3114" />
    </g>
    <g
       id="g3116"
       transform="matrix(71.129937,0,0,-65.639783,457.0473,326.87445)">
      <path
         inkscape:connector-curvature="0"
         d="m 0,0 c -0.027,0.048 -0.061,0.093 -0.098,0.136 -0.201,0.242 -0.502,0.4 -0.841,0.4 -0.34,0 -0.641,-0.157 -0.842,-0.398 C -1.818,0.094 -1.852,0.049 -1.881,0 c -0.101,-0.166 -0.162,-0.358 -0.162,-0.566 0,-0.609 0.494,-1.102 1.104,-1.102 0.607,0 1.101,0.493 1.101,1.102 0,0.208 -0.06,0.4 -0.162,0.566"
         style="fill:#231f20;fill-opacity:1;fill-rule:nonzero;stroke:none"
         id="path3118" />
    </g>
  </g>
  <g
     style="display:none"
     id="g3996"
     inkscape:groupmode="layer"
     inkscape:label="bars distribution">
    <rect
       transform="scale(-1,-1)"
       y="-500.34335"
       x="-483.18417"
       height="238.44872"
       width="81.428574"
       id="rect3998"
       style="fill:#000000;fill-opacity:1"
       inkscape:export-filename="/home/kjetil/prosjekter/beertistics/beertistics/static/img/bars-distribution.png"
       inkscape:export-xdpi="32.099865"
       inkscape:export-ydpi="32.099865" />
    <rect
       transform="scale(-1,-1)"
       y="-500.34335"
       x="-381.75562"
       height="318.02216"
       width="81.428574"
       id="rect4000"
       style="fill:#000000;fill-opacity:1"
       inkscape:export-filename="/home/kjetil/prosjekter/beertistics/beertistics/static/img/bars-distribution.png"
       inkscape:export-xdpi="32.099865"
       inkscape:export-ydpi="32.099865" />
    <rect
       transform="scale(-1,-1)"
       y="-500.34335"
       x="-280.32703"
       height="218.1653"
       width="81.428574"
       id="rect4002"
       style="fill:#000000;fill-opacity:1"
       inkscape:export-filename="/home/kjetil/prosjekter/beertistics/beertistics/static/img/bars-distribution.png"
       inkscape:export-xdpi="32.099865"
       inkscape:export-ydpi="32.099865" />
    <rect
       transform="scale(-1,-1)"
       y="-500.34335"
       x="-178.89848"
       height="119.6691"
       width="81.428574"
       id="rect4004"
       style="fill:#000000;fill-opacity:1"
       inkscape:export-filename="/home/kjetil/prosjekter/beertistics/beertistics/static/img/bars-distribution.png"
       inkscape:export-xdpi="32.099865"
       inkscape:export-ydpi="32.099865" />
    <rect
       y="500.34335"
       x="60.593609"
       height="29.285713"
       width="559.78613"
       id="rect4006"
       style="fill:#000000;fill-opacity:1;fill-rule:evenodd;stroke:#000000;stroke-width:0.96821523px;stroke-linecap:butt;stroke-linejoin:miter;stroke-opacity:1"
       inkscape:export-filename="/home/kjetil/prosjekter/beertistics/beertistics/static/img/bars-distribution.png"
       inkscape:export-xdpi="32.099865"
       inkscape:export-ydpi="32.099865" />
    <rect
       style="fill:#000000;fill-opacity:1"
       id="rect4008"
       width="81.428574"
       height="139.15413"
       x="-583.1842"
       y="-500.34335"
       transform="scale(-1,-1)"
       inkscape:export-filename="/home/kjetil/prosjekter/beertistics/beertistics/static/img/bars-distribution.png"
       inkscape:export-xdpi="32.099865"
       inkscape:export-ydpi="32.099865" />
  </g>
  <g
     inkscape:groupmode="layer"
     id="layer4"
     inkscape:label="bars horzontal"
     style="display:none">
    <rect
       transform="matrix(0,-1,1,0,0,0)"
       y="88.392639"
       x="-170.34302"
       height="524.71686"
       width="57.662804"
       id="rect3919"
       style="fill:#000000;fill-opacity:1;display:inline"
       inkscape:export-filename="/home/kjetil/prosjekter/beertistics/beertistics/static/img/bars-horizontal.png"
       inkscape:export-xdpi="32.466244"
       inkscape:export-ydpi="32.466244" />
    <rect
       y="-88.392639"
       x="79.761543"
       height="29.285713"
       width="449.67563"
       id="rect3921"
       style="fill:#000000;fill-opacity:1;fill-rule:evenodd;stroke:#000000;stroke-width:0.8677817px;stroke-linecap:butt;stroke-linejoin:miter;stroke-opacity:1;display:inline"
       transform="matrix(0,1,-1,0,0,0)"
       inkscape:export-filename="/home/kjetil/prosjekter/beertistics/beertistics/static/img/bars-horizontal.png"
       inkscape:export-xdpi="32.466244"
       inkscape:export-ydpi="32.466244" />
    <rect
       style="fill:#000000;fill-opacity:1;display:inline"
       id="rect3988"
       width="57.662804"
       height="382.28534"
       x="-250.34302"
       y="88.392639"
       transform="matrix(0,-1,1,0,0,0)"
       inkscape:export-filename="/home/kjetil/prosjekter/beertistics/beertistics/static/img/bars-horizontal.png"
       inkscape:export-xdpi="32.466244"
       inkscape:export-ydpi="32.466244" />
    <rect
       transform="matrix(0,-1,1,0,0,0)"
       y="88.392639"
       x="-330.34302"
       height="187.32591"
       width="57.662804"
       id="rect3990"
       style="fill:#000000;fill-opacity:1;display:inline"
       inkscape:export-filename="/home/kjetil/prosjekter/beertistics/beertistics/static/img/bars-horizontal.png"
       inkscape:export-xdpi="32.466244"
       inkscape:export-ydpi="32.466244" />
    <rect
       style="fill:#000000;fill-opacity:1;display:inline"
       id="rect3992"
       width="57.662804"
       height="112.57462"
       x="-410.34302"
       y="88.392639"
       transform="matrix(0,-1,1,0,0,0)"
       inkscape:export-filename="/home/kjetil/prosjekter/beertistics/beertistics/static/img/bars-horizontal.png"
       inkscape:export-xdpi="32.466244"
       inkscape:export-ydpi="32.466244" />
    <rect
       transform="matrix(0,-1,1,0,0,0)"
       y="88.392639"
       x="-490.34302"
       height="77.219284"
       width="57.662804"
       id="rect3994"
       style="fill:#000000;fill-opacity:1;display:inline"
       inkscape:export-filename="/home/kjetil/prosjekter/beertistics/beertistics/static/img/bars-horizontal.png"
       inkscape:export-xdpi="32.466244"
       inkscape:export-ydpi="32.466244" />
  </g>
  <g
     inkscape:label="scatter plot"
     inkscape:groupmode="layer"
     id="g4010"
     style="display:none">
    <rect
       style="fill:#000000;fill-opacity:1;fill-rule:evenodd;stroke:#000000;stroke-width:0.96821523px;stroke-linecap:butt;stroke-linejoin:miter;stroke-opacity:1"
       id="rect4020"
       width="559.78613"
       height="29.285713"
       x="60.593609"
       y="500.34335"
       inkscape:export-filename="/home/kjetil/prosjekter/beertistics/beertistics/static/img/scatter-plot.png"
       inkscape:export-xdpi="32.099865"
       inkscape:export-ydpi="32.099865" />
    <rect
       y="60.593609"
       x="-499.37515"
       height="29.285713"
       width="419.60672"
       id="rect4024"
       style="fill:#000000;fill-opacity:1;fill-rule:evenodd;stroke:#000000;stroke-width:0.83826637px;stroke-linecap:butt;stroke-linejoin:miter;stroke-opacity:1"
       transform="matrix(0,-1,1,0,0,0)"
       inkscape:export-filename="/home/kjetil/prosjekter/beertistics/beertistics/static/img/scatter-plot.png"
       inkscape:export-xdpi="32.099865"
       inkscape:export-ydpi="32.099865" />
    <path
       sodipodi:type="arc"
       style="fill:#000000;fill-opacity:1"
       id="path4028"
       sodipodi:cx="744.09448"
       sodipodi:cy="279.59549"
       sodipodi:rx="50.895573"
       sodipodi:ry="50.895573"
       d="m 794.99006,279.59549 a 50.895573,50.895573 0 1 1 -101.79115,0 50.895573,50.895573 0 1 1 101.79115,0 z"
       transform="matrix(0.54350629,0,0,0.54350629,-220.32555,287.63359)"
       inkscape:export-filename="/home/kjetil/prosjekter/beertistics/beertistics/static/img/scatter-plot.png"
       inkscape:export-xdpi="32.099865"
       inkscape:export-ydpi="32.099865" />
    <path
       transform="matrix(1.1786279,0,0,1.1786279,-592.91609,30.056428)"
       d="m 794.99006,279.59549 a 50.895573,50.895573 0 1 1 -101.79115,0 50.895573,50.895573 0 1 1 101.79115,0 z"
       sodipodi:ry="50.895573"
       sodipodi:rx="50.895573"
       sodipodi:cy="279.59549"
       sodipodi:cx="744.09448"
       id="path4030"
       style="fill:#000000;fill-opacity:1"
       sodipodi:type="arc"
       inkscape:export-filename="/home/kjetil/prosjekter/beertistics/beertistics/static/img/scatter-plot.png"
       inkscape:export-xdpi="32.099865"
       inkscape:export-ydpi="32.099865" />
    <path
       sodipodi:type="arc"
       style="fill:#000000;fill-opacity:1"
       id="path4032"
       sodipodi:cx="744.09448"
       sodipodi:cy="279.59549"
       sodipodi:rx="50.895573"
       sodipodi:ry="50.895573"
       d="m 794.99006,279.59549 a 50.895573,50.895573 0 1 1 -101.79115,0 50.895573,50.895573 0 1 1 101.79115,0 z"
       transform="matrix(0.76182937,0,0,0.76182937,-400.77855,134.59144)"
       inkscape:export-filename="/home/kjetil/prosjekter/beertistics/beertistics/static/img/scatter-plot.png"
       inkscape:export-xdpi="32.099865"
       inkscape:export-ydpi="32.099865" />
    <path
       transform="matrix(0.6228965,0,0,0.6228965,80.60063,-14.56356)"
       d="m 794.99006,279.59549 a 50.895573,50.895573 0 1 1 -101.79115,0 50.895573,50.895573 0 1 1 101.79115,0 z"
       sodipodi:ry="50.895573"
       sodipodi:rx="50.895573"
       sodipodi:cy="279.59549"
       sodipodi:cx="744.09448"
       id="path4034"
       style="fill:#000000;fill-opacity:1"
       sodipodi:type="arc"
       inkscape:export-filename="/home/kjetil/prosjekter/beertistics/beertistics/static/img/scatter-plot.png"
       inkscape:export-xdpi="32.099865"
       inkscape:export-ydpi="32.099865" />
    <path
       sodipodi:type="arc"
       style="fill:#000000;fill-opacity:1"
       id="path4036"
       sodipodi:cx="744.09448"
       sodipodi:cy="279.59549"
       sodipodi:rx="50.895573"
       sodipodi:ry="50.895573"
       d="m 794.99006,279.59549 a 50.895573,50.895573 0 1 1 -101.79115,0 50.895573,50.895573 0 1 1 101.79115,0 z"
       transform="matrix(0.94045738,0,0,0.94045738,-295.69464,-83.352139)"
       inkscape:export-filename="/home/kjetil/prosjekter/beertistics/beertistics/static/img/scatter-plot.png"
       inkscape:export-xdpi="32.099865"
       inkscape:export-ydpi="32.099865" />
    <path
       transform="matrix(0.48396363,0,0,0.48396363,-84.02019,70.281443)"
       d="m 794.99006,279.59549 a 50.895573,50.895573 0 1 1 -101.79115,0 50.895573,50.895573 0 1 1 101.79115,0 z"
       sodipodi:ry="50.895573"
       sodipodi:rx="50.895573"
       sodipodi:cy="279.59549"
       sodipodi:cx="744.09448"
       id="path4038"
       style="fill:#000000;fill-opacity:1"
       sodipodi:type="arc"
       inkscape:export-filename="/home/kjetil/prosjekter/beertistics/beertistics/static/img/scatter-plot.png"
       inkscape:export-xdpi="32.099865"
       inkscape:export-ydpi="32.099865" />
    <path
       sodipodi:type="arc"
       style="fill:#000000;fill-opacity:1"
       id="path4040"
       sodipodi:cx="744.09448"
       sodipodi:cy="279.59549"
       sodipodi:rx="50.895573"
       sodipodi:ry="50.895573"
       d="m 794.99006,279.59549 a 50.895573,50.895573 0 1 1 -101.79115,0 50.895573,50.895573 0 1 1 101.79115,0 z"
       transform="matrix(0.6228965,0,0,0.6228965,0.60063,145.43644)"
       inkscape:export-filename="/home/kjetil/prosjekter/beertistics/beertistics/static/img/scatter-plot.png"
       inkscape:export-xdpi="32.099865"
       inkscape:export-ydpi="32.099865" />
    <path
       inkscape:export-ydpi="32.099865"
       inkscape:export-xdpi="32.099865"
       inkscape:export-filename="/home/kjetil/prosjekter/beertistics/beertistics/static/img/scatter-plot.png"
       sodipodi:type="arc"
       style="fill:#000000;fill-opacity:1"
       id="path4138"
       sodipodi:cx="744.09448"
       sodipodi:cy="279.59549"
       sodipodi:rx="50.895573"
       sodipodi:ry="50.895573"
       d="m 794.99006,279.59549 a 50.895573,50.895573 0 1 1 -101.79115,0 50.895573,50.895573 0 1 1 101.79115,0 z"
       transform="matrix(0.28748289,0,0,0.28748289,142.18005,205.21657)" />
    <path
       inkscape:export-ydpi="32.099865"
       inkscape:export-xdpi="32.099865"
       inkscape:export-filename="/home/kjetil/prosjekter/beertistics/beertistics/static/img/scatter-plot.png"
       transform="matrix(0.42641576,0,0,0.42641576,98.800868,150.37157)"
       d="m 794.99006,279.59549 a 50.895573,50.895573 0 1 1 -101.79115,0 50.895573,50.895573 0 1 1 101.79115,0 z"
       sodipodi:ry="50.895573"
       sodipodi:rx="50.895573"
       sodipodi:cy="279.59549"
       sodipodi:cx="744.09448"
       id="path4140"
       style="fill:#000000;fill-opacity:1"
       sodipodi:type="arc" />
    <path
       sodipodi:type="arc"
       style="fill:#000000;fill-opacity:1"
       id="path4142"
       sodipodi:cx="744.09448"
       sodipodi:cy="279.59549"
       sodipodi:rx="50.895573"
       sodipodi:ry="50.895573"
       d="m 794.99006,279.59549 a 50.895573,50.895573 0 1 1 -101.79115,0 50.895573,50.895573 0 1 1 101.79115,0 z"
       transform="matrix(0.42641576,0,0,0.42641576,78.80087,330.37157)"
       inkscape:export-filename="/home/kjetil/prosjekter/beertistics/beertistics/static/img/scatter-plot.png"
       inkscape:export-xdpi="32.099865"
       inkscape:export-ydpi="32.099865" />
  </g>
</svg>
